<svg xmlns="http://www.w3.org/2000/svg" viewBox="0 0 239.75 259.58"><defs><style>.cls-1{fill-rule:evenodd;}.cls-2,.cls-6{font-size:14.41px;font-family:Montserrat-Bold, Montserrat Bold;font-weight:700;}.cls-10,.cls-2,.cls-6{fill:#fff;}.cls-2{letter-spacing:0.3em;}.cls-3{letter-spacing:0.31em;}.cls-4{letter-spacing:0.26em;}.cls-5{letter-spacing:0.3em;}.cls-6{letter-spacing:0.3em;}.cls-7{letter-spacing:0.3em;}.cls-8{letter-spacing:0.3em;}.cls-9{letter-spacing:0.3em;}.cls-10{font-size:180px;font-family:ButlerStencil, ButlerStencil;}</style></defs><title>cameron-binion-tempLogo</title><g id="Layer_2" data-name="Layer 2"><g id="Слой_1" data-name="Слой 1"><path class="cls-1" d="M177.61,13.12a20,20,0,0,0-4.83,0h-1a9,9,0,0,0-2.43-.43,39.17,39.17,0,0,1-4.07-.13,10.47,10.47,0,0,0-2.57.1,2.86,2.86,0,0,1-1.69-.14,3.17,3.17,0,0,0-2-.27,6.44,6.44,0,0,1-2.19,0,21.27,21.27,0,0,0-3.31-.18,4.2,4.2,0,0,0-1.66.31,8.29,8.29,0,0,1-.89.24c-.91-.09-1.75-.2-2.6-.24a11.59,11.59,0,0,0-5.44.76l0,0h-3.69l-.2-.36c-.92-.12-1.75-.22-2.56-.35a4.49,4.49,0,0,0-2.3.23l.09,0c.28,0,.57,0,.84,0s.37.13.19.22a.78.78,0,0,1-.3,0l-.73-.22h-.18l.09,0h0a6.8,6.8,0,0,1-1.1,0c-2.8-.27-5.63,0-8.45-.1a18.5,18.5,0,0,0-1.87.15c0,.15-.08.28-.12.41H107.12a9.68,9.68,0,0,0-2.47-.28c-.74,0-1.49,0-2.24-.05a14.22,14.22,0,0,0-3-.94,5.45,5.45,0,0,0-3.66.34.82.82,0,0,1-.3.09,2.46,2.46,0,0,1-.68.05c-1.41-.52-3.33-.38-4.89-.71a4.47,4.47,0,0,0-2.15.08,8.71,8.71,0,0,1-2.48.26H78.52a2.48,2.48,0,0,0-1.3.24,4.5,4.5,0,0,1-2.25.48l-3.28.11c0,.11-.09.22-.13.33H14a1,1,0,0,0,.46-.27c.11-.15.27-.33.18-.47-1.32-1.81-.8-1.6-4.65-2.21l-.79-.1L6.6,9.79l-.36,3.33c0,.46-.09,1-.13,1.43-.07,1-.13,2-.19,3-.11,2.05-.29,4.09-.31,6.13s-.2,4.35-.05,6.55a5.7,5.7,0,0,1-.08,1.5,10.89,10.89,0,0,0-.15,2.63,20.26,20.26,0,0,1-.2,3.74A13.44,13.44,0,0,0,5.1,43,2.83,2.83,0,0,1,5,44.07a7.33,7.33,0,0,0-.23,2.19,17.21,17.21,0,0,1,0,2.68,47,47,0,0,0-.22,6.5,17.15,17.15,0,0,1-.19,3,6.13,6.13,0,0,0,0,2.26,9.78,9.78,0,0,1,.09,3.73,29.68,29.68,0,0,0-.25,3c-.1,1.39-.18,2.81-.34,4.17a31.44,31.44,0,0,0-.25,4.57,28.24,28.24,0,0,1-.49,6.32,3.69,3.69,0,0,0,0,1.48,7.21,7.21,0,0,1,0,3.27A8.28,8.28,0,0,0,3,89.84a3.17,3.17,0,0,1-.22,1.32c-.17.79,0,1.17.45,1.28.14,0,.2.13.16.45s-.39.81-.6,1.28c-.06,1.08-.1,2.23-.18,3.35s-.22,2.25-.3,3c.16,1.73.28,3.12.4,4.5,0,.5.08,1,.14,1.49a9.12,9.12,0,0,1,.26,3.57c.1.45.2.9.29,1.34a2.18,2.18,0,0,1-.08,1.67c-.25.63-.48,1.24-.72,1.87a19.53,19.53,0,0,0-.29,2.94c0,.53.13,1,.34,1.14s.52.06.74.48a1.79,1.79,0,0,1,.2.55.73.73,0,0,1-.27.72,7,7,0,0,0-.8,1,2.81,2.81,0,0,0-.07,1.71c.07.19.14.46.22.51.8.5,1,1.89,1,3.72a3.58,3.58,0,0,0,.1.63c.14-.07.31.07.4-.33a3.87,3.87,0,0,1,.15-.63c.12-.34.44-.15.49.28a2.32,2.32,0,0,1-.42,2A7,7,0,0,1,5,131c.19.86.3,1.83.44,2.71l.78.48c.14.07.22-.06.23-.37a1.11,1.11,0,0,0,0-.33c-.07-.18-.16-.31-.23-.49-.23-.52-.23-.53,0-1.19a4.74,4.74,0,0,0,.17-.57c.17-.93.16-.94.47-.59a2.62,2.62,0,0,0,.42.45c.12.09.21-.1.2-.41a7.5,7.5,0,0,0-.23-2.16c-.18-.59-.35-1.22-.52-1.84h0c-.21.12-.28-.27-.33-.62a1.38,1.38,0,0,1,.14-1,3.91,3.91,0,0,0,.63-2.8c0-1.4-.13-2.79-.06-4.2-.44-2.06,0-4.29-.19-6.39a7.58,7.58,0,0,0-.13-3.26,10.11,10.11,0,0,1,0-4c.21-1-.2-2-.67-1.8a6.39,6.39,0,0,1-.93.32c-.37.09-.7-.63-.74-1.61,0-.76,0-1.53-.06-2.31,0-.34.09-.48.19-.36a.55.55,0,0,1,.09.24,8,8,0,0,0,.16,1.42c.17.5.36-.07.54-.22A2.46,2.46,0,0,1,6,99.7c.35-.11.71-.15,1.06-.23.08-.42.15-.76.22-1.11a4.42,4.42,0,0,0,0-2.17,6.38,6.38,0,0,1-.24-1,5.06,5.06,0,0,1-.09-1.1,14.75,14.75,0,0,1,.27-2.52,9.53,9.53,0,0,0,.26-2.16c0-2,0-4.12.21-6.13a4.25,4.25,0,0,0-.05-1.13,7.64,7.64,0,0,1,0-2.24c.12-1.24.23-2.5.35-3.76.37,0,.37,0,.54.35.37.75.42.86.74.38V206.65c-.37-.75-.75-1.49-1.14-2.18a.25.25,0,0,0-.43,0,6.85,6.85,0,0,0-.57,1v-.08a.65.65,0,0,0,0,.13H7v0c.08.27.15.55.23.79a6.83,6.83,0,0,1,.14,3.6,7,7,0,0,0-.2,1.44,20.1,20.1,0,0,0,.12,3c.21,1.2.06,2.52.19,3.77a13,13,0,0,1,0,1.52l0,5a9.37,9.37,0,0,1,0,3.34c-.07,1.15-.13,2.28-.2,3.43a1.6,1.6,0,0,0,.18,1A1.57,1.57,0,0,1,7.58,234c-.55,1.28-.38,3.15-.69,4.61a1.69,1.69,0,0,0,0,.72,2.58,2.58,0,0,1,0,2,5.05,5.05,0,0,0-.11,1.47,11.85,11.85,0,0,1-.15,3,7.54,7.54,0,0,0-.13,1.5c0,.5,0,1,0,1.49l-.09,2.63,2.72.09c1.26,0,2.47.18,3.71.29a15.89,15.89,0,0,0,4.41,0,3.57,3.57,0,0,1,1.43.1,3.88,3.88,0,0,0,1.26.31,3,3,0,0,0,1.51-.43,2.75,2.75,0,0,1,.49-.16h3.78c.52-.2.52-.2.9,0h-.17a.31.31,0,0,1,.09.07h0a7.63,7.63,0,0,1,2.78,0,2.9,2.9,0,0,0,1.31,0c.53-.1,1.19-.08,1.72-.18a12.28,12.28,0,0,0,1.45-.43h0l-.62,0c-.11,0-.31.06-.32.05s-.07-.15.3-.09a3.51,3.51,0,0,0,.64,0v0h0s0,.12.06.14l2.51.63c1.45-.08,2.94.08,4.38-.11.4-.05.84-.27.89-.46s-.32-.41-1-.52a5.4,5.4,0,0,1-.86-.24s0-.14,0-.15a17.93,17.93,0,0,1,2.07-.22c.53,0,.4.32.73.47a3.17,3.17,0,0,0,1.61.17c-.06-.25.3-.37.71-.49s.88-.4.85-.68a2.1,2.1,0,0,0-.37-.79l0,0h3a4.69,4.69,0,0,1-1.15.49c-.16.05-.29.18-.26.26a.57.57,0,0,0,.4.25,18.44,18.44,0,0,0,4.81,0,3.82,3.82,0,0,1-2.34-1H237V13.12ZM3.9,102.28c0,.08-.06.13-.09.19,0-.09-.05-.17-.07-.25a1.08,1.08,0,0,1,0-.25C3.88,101.9,3.93,102,3.9,102.28ZM6.65,122a.63.63,0,0,1,.07.22.46.46,0,0,1-.08.19.63.63,0,0,1-.07-.22A.46.46,0,0,1,6.65,122Zm-.37-7.62s.1.08.1.12a1.76,1.76,0,0,1,0,.31s-.1-.08-.1-.13S6.27,114.43,6.28,114.33ZM6,119.7v.24l-.1-.14Zm-.57,2.13c.14,0,.27.19.28.63a3.91,3.91,0,0,1-.11.7,2.36,2.36,0,0,1-.33-.56C5.21,122.34,5.32,121.88,5.46,121.83Zm91.1-109a2.51,2.51,0,0,1,.67,0,2.47,2.47,0,0,0,.71.35h-1.5a1.34,1.34,0,0,1,0-.21A.21.21,0,0,1,96.56,12.78Zm-6.87.11a1.11,1.11,0,0,1-.21-.44,1.35,1.35,0,0,1,.33-.12,3.39,3.39,0,0,1,1.49.4c.07,0,0,.2-.19.26a1.76,1.76,0,0,1-.43.13H90.2A.84.84,0,0,1,89.69,12.89Zm-78.9.18c.35,0,.71,0,1.06,0H9.44C9.88,13.1,10.34,13.06,10.79,13.07Zm-1.6.68v1.32A6.45,6.45,0,0,1,9.19,13.75ZM7.88,73.35l.06-.18,0,.22Zm.37-2.06c0-.13-.08-.27-.13-.41a1.43,1.43,0,0,1,.22-.26.75.75,0,0,1,.07.25A2.3,2.3,0,0,1,8.25,71.29Zm.54-4.12c-.11.48-.18,1-.28,1.56a6.68,6.68,0,0,0-.16-.79,3.54,3.54,0,0,1-.19-1.74,10.24,10.24,0,0,0,.11-1.49c0-2.44.25-4.86.08-7.31.29-1.63-.13-3.28,0-4.94A6.19,6.19,0,0,0,8.24,51a14.83,14.83,0,0,1-.29-3,3.49,3.49,0,0,1,.24-.51A2.61,2.61,0,0,0,8.57,46c0-.9,0-1.8,0-2.7a8.09,8.09,0,0,0-.08-1.12,5.27,5.27,0,0,1-.23-1.81c.13-.5.3-1,.41-1.58a5.67,5.67,0,0,0,.13-1.46,53.86,53.86,0,0,1,0-5.39C8.7,28.44,8.84,25,9,21.5a3.56,3.56,0,0,1,.19-1.35s0,0,0,0V65.61C9.05,66.13,8.91,66.63,8.79,67.17ZM14.28,249.3a2.84,2.84,0,0,1-.56-.18c-.18-.13.18-.28.67-.27a1.25,1.25,0,0,1,.55.15C15.09,249.13,14.67,249.3,14.28,249.3Zm6-.13-.1-.11h.24Zm10.61,1.91a3.3,3.3,0,0,1-.63.09c-.31,0-.44-.12-.25-.22a1.79,1.79,0,0,1,.62-.1.37.37,0,0,1,.26.09C30.89,251,30.89,251.07,30.84,251.08Zm1.6-2.2c-.26.06-.45,0-.39-.13l0,0h.47S32.51,248.86,32.44,248.88Zm1.87.51s.13-.06.2-.08l.18.1-.22.07C34.41,249.45,34.3,249.42,34.31,249.39Zm1.6.94h-.1a1.69,1.69,0,0,1-1,0h-.23l-.08-.08a1.06,1.06,0,0,0,.19,0l.12.05,1,0,.06,0,.12-.07S35.93,250.33,35.91,250.33Zm1.17-1.07a1,1,0,0,1-.89-.11c.08-.09.1-.21.26-.27s.91,0,.94.12S37.24,249.2,37.08,249.26Zm4.51-.44a1,1,0,0,1-.24-.09h.74C42,248.82,41.83,248.85,41.59,248.82Z"/><path class="cls-1" d="M71.63,12.79h.06a0,0,0,0,1,0,0Z"/><path class="cls-1" d="M4.43,129.69h0v0a2.83,2.83,0,0,1-.07.7A18.14,18.14,0,0,0,3,133.61c.15,1.56.21,1.69.63,1.08.2-.3.37-.4.56,0l.58,1.17a4.35,4.35,0,0,0-.28-2.52,2.25,2.25,0,0,1-.13-1.38,12,12,0,0,0,0-2.24h0v0Z"/><path class="cls-1" d="M64.77,257.39l.07,0-.06,0Z"/><path class="cls-1" d="M79.73,255.15c-.49-.07-.72-.26-.82-.49s.14-.56-.58-.77c-1.14,0-2.39,0-3.59,0a14.39,14.39,0,0,0-3.28,0,4.4,4.4,0,0,1-1.38-.15c-.4-.11-.66-.32-1-.44a7.12,7.12,0,0,0-3.44-.4,5.35,5.35,0,0,1-1.44,0,6.31,6.31,0,0,0-2.5.11c-.54.13-1.08.27-1.65.37a5.55,5.55,0,0,1-2.15,0,28.1,28.1,0,0,0-3.91-.46c-2.2-.14-4.38-.25-6.61-.2-.87,0-1.76-.09-2.6,0s-1.58.29-2.4.4-1.66.2-2.49.29v.06c.19,0,.19,0,0,.05v-.05l-.09,0c0-.29-.22-.55-.79-.69a8,8,0,0,0-1.43-.11,7.89,7.89,0,0,0-1.09.1,10.44,10.44,0,0,1-3.3,0c-1,.2-1.88-.2-2.86-.14a7.28,7.28,0,0,1-2.83,0l-3.7.16a4.26,4.26,0,0,1-1.06,0,9.56,9.56,0,0,0-4.29,0,5.39,5.39,0,0,1-1.06,0l-2.57-.18a5.36,5.36,0,0,0-1.08.05,3.59,3.59,0,0,1-2.36,0l-2.14-.16-3.75-.28.22-3.37a18.8,18.8,0,0,0,0-2l-.15-4.21c0-.75-.23-1.49-.23-2.22s.19-1.71.23-2.58a4.51,4.51,0,0,0-.83-3.32,1.66,1.66,0,0,0-.3-.25c-.15-.09-.28-.23-.33-.64a1.15,1.15,0,0,1,.45-.92c.2-.1.4-.16.58-.23a5,5,0,0,0,.13-1.54,6.57,6.57,0,0,1,0-1.5,13.61,13.61,0,0,0,.22-3.73c0-.49-.16-1-.16-1.45a5.49,5.49,0,0,0-.1-1.81c-.15-.45.22-.9.15-1.33a12,12,0,0,1,0-2.47,9.07,9.07,0,0,1,0-2.21,7.86,7.86,0,0,0,.09-1.5,40.6,40.6,0,0,0-.42-6,3.68,3.68,0,0,1-.2-1.31c.06-.48,0-1.05.08-1.52a30.33,30.33,0,0,0,.09-6.46c-.1-1.4-.08-2.9-.29-4.17a26.72,26.72,0,0,0-1-3.45c-.19-.62-.38-1.25-.57-1.85a4.3,4.3,0,0,0-.25-.48c-.1-.2-.38-.23-.44,0a2.62,2.62,0,0,0-.14.63c0,3.86.1,7.72-.19,11.55a11.18,11.18,0,0,0,.05,1.15c0,.9.06,1.81,0,2.7,0,1.4-.07,2.8-.11,4.2a6.71,6.71,0,0,0,.27,2.51,2,2,0,0,1,0,1.08,11.82,11.82,0,0,0-.07,1.88c0,.73-.24,1.42-.26,2.14,0,1.53-.06,3.1,0,4.62A13.43,13.43,0,0,1,2,225c-.15.89-.08,2-.2,3-.09.72.16,1.47.08,2.25s-.22,1.5-.23,2.25a43.14,43.14,0,0,0,0,4.55,8.53,8.53,0,0,1,0,1.89,10.76,10.76,0,0,0,.14,2.58c-.14,1-.27,2-.41,2.95.14.69.28,1.36.4,2.06a3.18,3.18,0,0,1-.12,1.77,2.18,2.18,0,0,0-.16.45L0,253.9l9.19,2.83a4.35,4.35,0,0,0,1.93.07c.91-.15,1.92-.2,2.79-.29l2.54.43a16,16,0,0,1,2.95.11c.94,0,1.71,0,1.92-.55.09-.22.49-.27.82-.17a9.76,9.76,0,0,0,2,.44,2.84,2.84,0,0,0,2.14-.41.32.32,0,0,1,.15-.12,5.6,5.6,0,0,1-1.64.08c-.08,0-.15-.07-.14-.11s.09-.12.13-.12c.23,0,.46,0,.68,0l1,.11h0l-.18.12c-.11.16.19.29.38.43a.67.67,0,0,0,.61.09c.19-.06.43-.16.42-.23a2.63,2.63,0,0,0-.28-.62c-.09-.17.14-.31.54-.34,1.1-.1,1.61.07,1.72.54,0,.11,0,.22,0,.33s.52.21.89.11a4.11,4.11,0,0,1,.87-.26c.44,0,.5.17.57.34a.51.51,0,0,0,.33.26c.43.1.89.18,1.35.26a2.09,2.09,0,0,0,1.53-.28l.44-.26h0l-.07,0v0l-.18,0c.14-.08.2-.08.18,0h.07a6.09,6.09,0,0,1,2.62-.72.86.86,0,0,1,.27.12c.52.63,1.4,1,3.06.77.45,0,1,.05,1.46,0a4.91,4.91,0,0,1,1.75.05c.63.16,1.41.19,2.1.3a2.23,2.23,0,0,0,1.61-.2,2.5,2.5,0,0,1,1.35-.51,1,1,0,0,1,.35,0c.08,0,.17.09.14.13s-.26.28-.37.43-.16.22-.07.3a1.74,1.74,0,0,0,.62.06c.37,0,.73-.09,1.09-.09.75,0,1.13-.16,1.13-.49a.61.61,0,0,1,.2-.31.78.78,0,0,1,.3-.07c.22,0,.57,0,.61.09a2.85,2.85,0,0,1,.46.78c.05.12.13.21.53.24a9.22,9.22,0,0,0,1-.07c.47-.07.91-.16,1.33-.24a9.81,9.81,0,0,0,3.62.33,12.8,12.8,0,0,1,1.84,0c.49,0,1,0,1.47,0a.92.92,0,0,0,.72-.32l-.36-.2c-.21-.14-.31-.28,0-.4a1.23,1.23,0,0,1,1.13.15.26.26,0,0,1,.07.11c.25,0,.47.1.38.24a.85.85,0,0,1-.32.1c.81.25,1.09.26,1.44,0a5.47,5.47,0,0,1,1.58-.9c.1,0,.22-.07.25-.12s.19-.31.29-.46a.6.6,0,0,1,.14-.14,4.44,4.44,0,0,1,.57.11c.66.19.77.53,1.12.81a2,2,0,0,0,1.74.42,3.42,3.42,0,0,1,1,.17c1,.21,1.12.19,1.7-.23.24-.18.17-.28-.29-.38l-.93-.17.21-.18a1.24,1.24,0,0,1,1-.38c.49,0,1,.08,1.48.07.85,0,1.4.14,1.66.5a2,2,0,0,0,.6,0,9,9,0,0,0,.93-1.05C80.3,255.34,80.17,255.22,79.73,255.15ZM2.68,241l0,.25v-.37l.08-.1A1.43,1.43,0,0,0,2.68,241Zm23.51,12,0-.09.21,0Zm18.1,1.54.06.08h-.19Zm0,1.62a1.91,1.91,0,0,1-.51-.12c-.12-.06-.13-.17-.15-.26s.18,0,.27-.05a1.72,1.72,0,0,1,.5.16C44.42,256,44.29,256.09,44.25,256.18Zm2.06-2.5.15-.11.1.12Zm7.74.08a1.61,1.61,0,0,1-.37.2s-.17,0-.25,0a1,1,0,0,1,.23-.23.55.55,0,0,1,.26,0C54,253.67,54.08,253.74,54.05,253.76Zm6.2.64c-.26.06-.43,0-.46-.11s.1-.07.16-.11l.5.12A1.24,1.24,0,0,1,60.25,254.4Zm2.09,2.11c-.26.06-.88,0-.93-.15s-.35-.53-.21-.76A3.12,3.12,0,0,1,63,254.3h0l-.12,0,.08-.09,0,.05.05,0-.05,0a.55.55,0,0,0,.21.22c.41.26.61.52.24.83-.15.12-.13.28-.18.42-.46.13-.46.16,0,.31C63.15,256.31,62.75,256.42,62.34,256.51Zm2.59-.38a4.53,4.53,0,0,1-1.56-.05v-.29l1.58,0c.08,0,.24.08.22.11A.41.41,0,0,1,64.93,256.13Zm2.55-2.37a.85.85,0,0,1-.15-.28s.15-.06.23-.09a1.22,1.22,0,0,1,.15.27S67.56,253.73,67.48,253.76Zm5.23,1.88c-.08,0-.23,0-.23-.07a.53.53,0,0,1,0-.28,1.64,1.64,0,0,1,.24,0,.82.82,0,0,1,.19.28S72.8,255.6,72.71,255.64Zm4.94-1a4.23,4.23,0,0,1-1,.2,4.54,4.54,0,0,0-1.64.49h0a3.37,3.37,0,0,1,1.83-.13c.16,0,.3.15.31.24s-.21.17-.51.14-.46,0-.69-.09l-.94-.16-.13,0,.12,0h0c-.16-.24-.52-.48-.24-.8l2.3-.31h.36c.3,0,.52.06.5.18A.36.36,0,0,1,77.65,254.6Z"/><path class="cls-1" d="M230.3,256a1.67,1.67,0,0,0-.61,0c-.3,0-.51,0-.62-.1s-.12-.26.1-.37a3.23,3.23,0,0,1-.9-.21,7.57,7.57,0,0,0-2.68-.81,1.48,1.48,0,0,0-1.16.25l-.33.24a4.59,4.59,0,0,0-2.4-.14c-.31.07-.7.1-1,.16a4.71,4.71,0,0,1-1.37-.11v0c.31.15.64.3.91.46s.51.31.41.4c-.43.43.3.83,0,1.24a.77.77,0,0,1-.49.18,1.22,1.22,0,0,1-.58-.15.55.55,0,0,1-.25-.28c-.31-.61.14-1.23-.05-1.85l0,0h0c.07,0,.2-.07.23-.12s0-.12-.08-.14l-2.07-.69c-.48.14-1,.3-1.47.42a4.34,4.34,0,0,1-3-.26c-.22-.11-.35-.3-.31-.45a1.63,1.63,0,0,1,.46-.61,2.56,2.56,0,0,1,2-.59,19.74,19.74,0,0,0,4.71-.29c.37-.07.6-.25.42-.37a1.48,1.48,0,0,0-1-.09l-1.78.24c-1,.12-1.68,0-2-.44-.13-.16-.51-.18-.9-.2-.59,0-1.17-.11-1.85-.17l-1.25.81h0l.23,0-.18.07-.05,0h0c-.78-.39-.3-.83-.08-1.31l-2.94.06.13.65.07,0h0c-.09-.07,0-.09.15,0l-.15,0,.05,0-.09,0h-.06s0,0,0,0a11,11,0,0,0-1.15-.17,13.33,13.33,0,0,0-3.94,0c-.36,0-.71.1-1.05.16a12.75,12.75,0,0,1-3.61.2,5.77,5.77,0,0,0-1.78.28c-.61-.08-1.31-.18-2-.25a17,17,0,0,1-2.16-.19,10.27,10.27,0,0,0-2.06-.2c-.07,0-.11-.09-.16-.13a5.4,5.4,0,0,0-2.1-.13c-2.56.22-5.15.25-7.75.27-1.47,0-3,0-4.42.12s-3.13.27-4.69.4a11.28,11.28,0,0,1-2,.36c-.75.17-1.05.67-.55.95s.77.42,1.16.64c.38,0,.75,0,1.11.06s.7.18.59.34c-.23.32.06.51.63.67.31.09.69.19.62.37a1.35,1.35,0,0,1-1.29.92,8.36,8.36,0,0,0-2,.65c-.35.11-.42.27-.24.42s0,.31,0,.47c0,.36.27.44,1.14.32.45-.06.92-.09,1.38-.13l-.05,0h0c-.3-.13-.63-.26-.88-.4s0-.19.32-.21c1.21-.11,1.68.22,2,.63v0l.19,0c.12.1,0,.14-.21.11,0,0,0,0,0-.08h0l-1.43-.05.06,0h0a3.19,3.19,0,0,1,.68.52c.59.76.57.76,2.11.76.86,0,1.72.07,2.57.08.62,0,1.21,0,1.82.07,1,.08,1.94.06,2.92.08a4.43,4.43,0,0,1,2.7-.11,1.75,1.75,0,0,0,1.47-.24c.51-.29.64-.27,1.52-.09.44.09.88.18,1.35.23.95.1,1.91.18,2.89.27a7.36,7.36,0,0,1,2.37-.27,8.67,8.67,0,0,0,3.55,0,10.44,10.44,0,0,1,2.52.19,8.26,8.26,0,0,0,1,.1A3.23,3.23,0,0,0,202,259c.47-.48.54-.49,1.57-.48.38,0,.69.18.59.33a1,1,0,0,1-.73.39c.43.05.87.09,1.28.16a6.5,6.5,0,0,0,2.49-.07l.7-.1c.52-.08.82-.22.63-.3a4,4,0,0,0-.6-.09c-.2,0-.55-.08-.55-.14-.07-.37-.77-.58-1.15-.9l2.1-.27a8.17,8.17,0,0,0,.7.8,2,2,0,0,0,1.53.24,4.8,4.8,0,0,1,.67-.11,13.23,13.23,0,0,0,3.56-.06,1.23,1.23,0,0,1,.43.15l0,.05,0,0h0l-.08,0,2.5.45c0-.26.39-.45.71-.66l-.06,0h.11a.86.86,0,0,1,.74-.21,1.51,1.51,0,0,1,.45.2,1.22,1.22,0,0,1-.3.08l-.89-.07s0,0,0,0h0l.87.67-.06.05h.12l-.06-.05a2.17,2.17,0,0,1,2.06.19,6.36,6.36,0,0,0,2.08-.19,6.2,6.2,0,0,1,.36-.79c.05-.09.3-.16.48-.23s.56-.08.65,0,.15.42.27.62a1.4,1.4,0,0,0,1.19.25c.86-.19,1.85-.31,2.17-.8.11-.17.22-.43.86-.44a11.51,11.51,0,0,0,1.13.39,1.28,1.28,0,0,0,.61-.07c.17-.2.16-.43.36-.61a4.55,4.55,0,0,1,.86-.47C231.51,256.67,230.62,256.47,230.3,256Zm-16.81-4.24c.17-.08.27,0,.26.09l-.2,0S213.45,251.79,213.49,251.77Zm-41.55.92a1.3,1.3,0,0,1-.31.06c-.31,0-.38-.12-.2-.23a.68.68,0,0,1,.27-.07C172,252.49,172,252.58,171.94,252.69Zm4.29,2.15a.69.69,0,0,1-.58,0c-.2-.08-.18-.18,0-.25a.89.89,0,0,1,.33,0C176.3,254.63,176.36,254.72,176.23,254.84Zm1.41,3.32a.78.78,0,0,1-.29,0c-.31-.14-.25-.46.11-.57a.81.81,0,0,1,.35,0,3,3,0,0,1,.47.28C178.08,258,177.88,258.06,177.64,258.16Zm.31-2.76c-.29,0-.38-.12-.3-.24a2.1,2.1,0,0,1,1.28-.48c.16.06.42.11.48.19C179.7,255.27,179,255.51,178,255.4Zm1.26,1.7a4.5,4.5,0,0,1-.55-.13c-.18-.1.19-.24.59-.21a2.18,2.18,0,0,1,.51.17Zm3.11-.55-.47-.2c0-.12.11-.21.34-.16a.57.57,0,0,1,.31.25S182.38,256.52,182.32,256.55Zm4.64-.3a6.68,6.68,0,0,0-2.24-.75,1.58,1.58,0,0,1-.7-.34c-.11-.07-.19-.21-.1-.25a1.56,1.56,0,0,1,.64-.11c.34,0,.67.08,1,.13l.06,0h0c-.07-.12,0-.15.09,0s0,0-.09.06c.75.4,1.62.76,1.65,1.32A1.24,1.24,0,0,1,187,256.25Zm6.44,0a.48.48,0,0,1,.3-.06,2.51,2.51,0,0,1,.6.15c.07,0,0,.1,0,.15s-.09.13-.17.14C193.77,256.65,193.22,256.37,193.4,256.23Zm-1.5-2.29,0,.07-.18,0Zm4.1,4.24c0,.07-.33.14-.53.16-.35,0-.73,0-1.35,0s-1.47-.06-2.31-.12a1,1,0,0,1-.49-.21c-.13-.13,0-.22.32-.24.83-.07,1.67-.15,2.51-.19a3,3,0,0,1,1.63.29C195.92,258,196.05,258.09,196,258.18Zm.53-5s-.15.05-.23.08-.16-.08-.16-.13.16-.17.36-.09A.09.09,0,0,1,196.53,253.16Zm3.74-.72h-.07v0l-.11,0h.09l0-.05C200.44,252.3,200.49,252.34,200.27,252.44Zm1.94,4.18.15-.1.1.11Zm2.43.69-.07-.08h.18Zm-.13-3.08c-.16,0-.28-.17-.26-.25.05-.26.42-.41.87-.38.15.07.37.12.42.2s-.12.3-.44.38A1.55,1.55,0,0,1,204.51,254.23Zm.88,1.49c-.06,0-.19-.07-.18-.1s.14-.06.22-.09l.2.1Zm1.78-3.54a.5.5,0,0,1-.36.26c-.56.1-1.52-.18-1.61-.47,0-.07.26-.15.48-.26.41,0,.89.1,1.32.19A.23.23,0,0,1,207.17,252.18Zm.24,1s0-.11.05-.15.16,0,.26,0,.12.1.1.14A.25.25,0,0,1,207.41,253.21Zm2.69-.07a1.31,1.31,0,0,1-.26-.09s0-.1,0-.1a4.46,4.46,0,0,1,.63,0c.08,0,.16.07.24.11Zm2.05,2.54-.1-.1h.23Zm2.14.55s-.11-.08-.1-.12.11-.06.17-.1l.1.12Zm.82,1.79c-.07-.09-.2-.19-.18-.28s.31-.18.55-.09.18.18.27.27Zm11.58-2.61-.18.09.07-.13S226.74,255.34,226.69,255.41Z"/><path class="cls-1" d="M229.26,255.46h-.06v0h0Z"/><path class="cls-1" d="M200.17,252.37l0,0,.05,0C200.38,252.4,200.36,252.38,200.17,252.37Z"/><path class="cls-1" d="M217.68,259s0,0,0,.06l.06-.05Z"/><path class="cls-1" d="M203.16,259.29h.09l.15,0h-.15Z"/><path class="cls-1" d="M44.34,250.72h-.08Z"/><path class="cls-1" d="M236.53,255.08c-.44-.19-.85-.38-.91-.68s-.35-.24-.78-.14-.67.1-.8.12a7.44,7.44,0,0,0-3,.21c-.28,0-.36.19-.12.27a5.5,5.5,0,0,0,3.33.36,1.45,1.45,0,0,1,1.43.32.36.36,0,0,0,.21.13,2.81,2.81,0,0,0,.65.07c.27,0,.55-.3.41-.39A1.9,1.9,0,0,0,236.53,255.08Z"/><path class="cls-1" d="M52.4,249.78l.12,0h0l-.15,0h0l-.11,0,.12,0Z"/><path class="cls-1" d="M3.82,128.39h0l0,.05s0,0,0,0v0a.19.19,0,0,0,0-.07Z"/><path class="cls-1" d="M2.77,126.46c-.18,0-.34.24-.32.6,0,1,.07,2,.11,3a.42.42,0,0,0,.1.25c.09,0,.24,0,.25-.09.17-1,.42-1.75.89-1.83a2.69,2.69,0,0,1-.64-1.46C3.12,126.52,2.92,126.5,2.77,126.46Z"/><path class="cls-1" d="M214.17,259.37a1.58,1.58,0,0,0,1.19.16c.32-.09.42-.24.32-.4a4.29,4.29,0,0,0-.45-.52c-.17.05-.34.11-.53.15C214,258.93,213.89,259.09,214.17,259.37Z"/><path class="cls-1" d="M233.94,257.62Z"/><path class="cls-1" d="M236.44,257.55l-2.5.07.82.26a3.38,3.38,0,0,0,1.73,0c.13,0,.15-.16.17-.25S236.51,257.55,236.44,257.55Z"/><path class="cls-1" d="M52.36,249.89a.56.56,0,0,0,.16-.14C52.4,249.79,52.36,249.84,52.36,249.89Z"/><path class="cls-1" d="M51.29,250.65a1.75,1.75,0,0,0,.64.07,1.94,1.94,0,0,0,.81-.29c.09-.11-.16-.28-.31-.42a.15.15,0,0,1-.07-.12,7.85,7.85,0,0,1-1.15.34C51,250.32,51,250.54,51.29,250.65Z"/><path class="cls-1" d="M4.9,139.74a5.39,5.39,0,0,0,0-.71,1.38,1.38,0,0,0-.17-.43,2.42,2.42,0,0,0-.15.56,3.2,3.2,0,0,0,0,.69,3.68,3.68,0,0,0,.13.63C4.78,140.66,4.9,140.21,4.9,139.74Z"/><path class="cls-1" d="M44.33,250.73h-.06Z"/><path class="cls-1" d="M42.84,251.37a2,2,0,0,0,.57.16c.36,0,.71-.1,1.09-.15-.08-.22-.16-.42-.23-.63l-1.35.51C42.86,251.29,42.81,251.36,42.84,251.37Z"/><path class="cls-1" d="M7.17,127.14a.51.51,0,0,0,.1-.25,1.55,1.55,0,0,0-.11-.51,2.49,2.49,0,0,0-.53.32C6.81,126.88,7,127.3,7.17,127.14Z"/><path class="cls-1" d="M220.6,250.88a.87.87,0,0,0-.25-.08c-.18,0-.32.11-.48.17l.53.11C220.73,251.06,220.8,251,220.6,250.88Z"/><path class="cls-1" d="M6.22,136.9a1.43,1.43,0,0,0,.15-.56c0-.37-.2-.59-.33-.32a4.43,4.43,0,0,0-.08.64C6,137,6.11,137.08,6.22,136.9Z"/><path class="cls-1" d="M2.51,112.63a.67.67,0,0,0-.07.27,6.64,6.64,0,0,0,.18,2c0-.67.06-1.34.07-2C2.7,112.52,2.62,112.42,2.51,112.63Z"/><path class="cls-1" d="M2.62,114.88c0,.06,0,.12,0,.17h0l0-.05h0A.3.3,0,0,1,2.62,114.88Z"/><path class="cls-1" d="M7.18,134.13a1.28,1.28,0,0,0,.05-.27c-.07-.11-.14-.32-.22-.32s-.17.25-.07.47S7.1,134.12,7.18,134.13Z"/><path class="cls-1" d="M82.26,256.11c-.08,0-.23.07-.23.11s.21.14.47.06a.08.08,0,0,0,0-.13A.85.85,0,0,0,82.26,256.11Z"/><path class="cls-1" d="M217.67,259.06h.13l-.07-.05Z"/><path class="cls-1" d="M218.08,259.25a.87.87,0,0,0,.84,0,1,1,0,0,0,.28-.19h-1.4A2.26,2.26,0,0,0,218.08,259.25Z"/><path class="cls-1" d="M70.84,12.84a1.14,1.14,0,0,0,.74,0l-.62,0S70.84,12.84,70.84,12.84Z"/><path class="cls-1" d="M71.62,12.8l.08,0-.12,0Z"/><path class="cls-1" d="M52.36,249.74l0-.13S52.32,249.69,52.36,249.74Z"/><path class="cls-1" d="M52.31,249.36s0,.1,0,.15l0,.1a.48.48,0,0,1,.15-.11C52.74,249.37,52.64,249.3,52.31,249.36Z"/><path class="cls-1" d="M85.78,11.51s0-.08-.07-.09a.76.76,0,0,0-.3,0c-.26.06-.23.12.08.15A1,1,0,0,0,85.78,11.51Z"/><path class="cls-1" d="M239.63,39.65s-.08.07-.12.1a.85.85,0,0,0,0,.3c0,.06.1.09.13.05A.29.29,0,0,0,239.63,39.65Z"/><path class="cls-1" d="M5.44,140s-.09,0-.09,0a5.48,5.48,0,0,0-.07.6.84.84,0,0,0,.09.25,1,1,0,0,0,.1-.24C5.47,140.43,5.45,140.22,5.44,140Z"/><polygon class="cls-1" points="217.05 252.96 216.82 252.98 217.03 253.03 217.05 252.96"/><path class="cls-1" d="M4.13,137.77a1,1,0,0,0,0-.25c-.09,0-.17-.12-.26-.11s-.1.12-.11.22C3.73,137.94,4,138.07,4.13,137.77Z"/><polygon class="cls-1" points="3.33 138.99 3.2 139.1 3.32 139.27 3.33 138.99"/><polygon class="cls-1" points="55.35 250.1 55.6 250.06 55.38 250 55.35 250.1"/><path class="cls-1" d="M190.13,250.88s.22.09.4.14c-.08,0-.17-.07-.18-.11S190.2,250.72,190.13,250.88Z"/><path class="cls-1" d="M190.53,251h.09Z"/><path class="cls-1" d="M7,205.53l0-.09v.17H7v0l0,0H7Z"/><path class="cls-1" d="M25.8,251.53h.71A1.13,1.13,0,0,0,25.8,251.53Z"/><path class="cls-1" d="M229.2,255.45v-.06C229,255.44,229,255.47,229.2,255.45Z"/><polygon class="cls-1" points="2.53 132.16 2.56 132.36 2.61 132.18 2.53 132.16"/><path class="cls-1" d="M65.53,257.38v.05l.16,0h-.16Z"/><path class="cls-1" d="M65.52,257.11l.12,0s0,0,0,0h-.11Z"/><path class="cls-1" d="M64.84,257.43s0,0,0,0h-.09Z"/><path class="cls-1" d="M64.87,257.39h.66v-.27C65.2,257.16,64.92,257.22,64.87,257.39Z"/><path class="cls-1" d="M234,257.58l0,0h0Z"/><path class="cls-1" d="M234.23,257l-.06,0a6.59,6.59,0,0,0,1.75-.17c-.3-.71-.45-.76-1.8-.55-.52.07-.65.25-.36.51a2.48,2.48,0,0,0,.4.22l-.21.58C234.33,257.43,234.33,257.24,234.23,257Z"/><path class="cls-1" d="M203.26,259.29v.07C203.48,259.31,203.47,259.29,203.26,259.29Z"/><polygon class="cls-1" points="190.93 0 190.71 0.03 190.91 0.09 190.93 0"/><text class="cls-2" transform="translate(42.72 233.61)">WEB D<tspan class="cls-3" x="61.36" y="0">E</tspan><tspan x="72.9" y="0">VE</tspan><tspan class="cls-4" x="96.67" y="0">L</tspan><tspan class="cls-5" x="107.24" y="0">OPER</tspan></text><text class="cls-6" transform="translate(36.95 213.65)">C<tspan class="cls-7" x="12.74" y="0">A</tspan><tspan class="cls-8" x="25.82" y="0">ME</tspan><tspan class="cls-9" x="53.14" y="0">R</tspan><tspan class="cls-8" x="65.26" y="0">ON BINION</tspan></text><text class="cls-10" transform="translate(18.09 172.76)">CB</text></g></g></svg>